<svg width="309" height="120" viewBox="0 0 309 120" fill="none" xmlns="http://www.w3.org/2000/svg">
<g clip-path="url(#clip0_162_380)">
<rect width="309" height="163" fill="#BCC9FB"/>
<g filter="url(#filter0_f_162_380)">
<path d="M360 102.293C360 133.934 347.998 163 316.329 163C268.861 163 240 134.923 240 94.3248C240 62.6829 270.989 45 302.658 45C334.327 45 360 70.6508 360 102.293Z" fill="#90A5F8"/>
</g>
<g filter="url(#filter1_f_162_380)">
<path d="M22 66.3633C22 78.162 17.4993 89 5.62342 89C-12.1772 89 -23 78.5305 -23 63.3923C-23 51.5936 -11.379 45 0.496835 45C12.3727 45 22 54.5647 22 66.3633Z" fill="#D0DAFC"/>
</g>
</g>
<defs>
<filter id="filter0_f_162_380" x="239" y="44" width="122" height="120" filterUnits="userSpaceOnUse" color-interpolation-filters="sRGB">
<feFlood flood-opacity="0" result="BackgroundImageFix"/>
<feBlend mode="normal" in="SourceGraphic" in2="BackgroundImageFix" result="shape"/>
<feGaussianBlur stdDeviation="0.5" result="effect1_foregroundBlur_162_380"/>
</filter>
<filter id="filter1_f_162_380" x="-24" y="44" width="47" height="46" filterUnits="userSpaceOnUse" color-interpolation-filters="sRGB">
<feFlood flood-opacity="0" result="BackgroundImageFix"/>
<feBlend mode="normal" in="SourceGraphic" in2="BackgroundImageFix" result="shape"/>
<feGaussianBlur stdDeviation="0.5" result="effect1_foregroundBlur_162_380"/>
</filter>
<clipPath id="clip0_162_380">
<rect width="309" height="120" rx="20" fill="white"/>
</clipPath>
</defs>
</svg>
