<svg width="31" height="31" viewBox="0 0 31 31" fill="none" xmlns="http://www.w3.org/2000/svg">
<g clip-path="url(#clip0_162_208)">
<path d="M17.2182 0.497804C17.4888 0.682324 17.7123 0.907962 17.942 1.14019C17.9954 1.19323 18.0488 1.24627 18.1038 1.30092C18.2506 1.44692 18.3969 1.59344 18.5429 1.74021C18.701 1.89889 18.8598 2.05687 19.0186 2.21495C19.3289 2.5242 19.6386 2.83409 19.948 3.14423C20.1996 3.39639 20.4515 3.64831 20.7035 3.90007C20.7394 3.93597 20.7754 3.97188 20.8124 4.00887C20.8854 4.08182 20.9585 4.15477 21.0315 4.22772C21.7154 4.91093 22.3986 5.59489 23.0815 6.2791C23.6668 6.86549 24.2527 7.45124 24.8391 8.03653C25.521 8.71708 26.2024 9.39803 26.8833 10.0796C26.9559 10.1524 27.0286 10.2251 27.1013 10.2979C27.137 10.3336 27.1728 10.3694 27.2096 10.4063C27.4609 10.6578 27.7125 10.9091 27.9643 11.1602C28.2712 11.4665 28.5778 11.7733 28.8838 12.0805C29.0397 12.2371 29.1959 12.3935 29.3526 12.5494C29.5228 12.7188 29.692 12.889 29.8612 13.0594C29.9103 13.108 29.9595 13.1567 30.0102 13.2068C30.6553 13.8608 31.0212 14.5784 31.0307 15.5009C31.0259 15.9647 30.9772 16.3564 30.7582 16.7724C30.7333 16.8236 30.7083 16.8748 30.6826 16.9275C30.3067 17.628 29.7027 18.0467 28.9645 18.3012C28.6357 18.3743 28.3235 18.4104 27.9878 18.4086C27.9153 18.4083 27.9153 18.4083 27.8413 18.408C27.8049 18.4077 27.7684 18.4074 27.7309 18.4072C27.7311 18.4786 27.7311 18.4786 27.7312 18.5515C27.7339 19.7134 27.7359 20.8753 27.7372 22.0372C27.7378 22.5991 27.7386 23.161 27.74 23.7229C27.7412 24.213 27.742 24.703 27.7423 25.1931C27.7425 25.4523 27.7428 25.7115 27.7437 25.9707C27.7445 26.2152 27.7448 26.4598 27.7446 26.7043C27.7446 26.7935 27.7449 26.8827 27.7453 26.9719C27.7513 28.1661 27.5564 29.1911 26.7319 30.0965C25.8245 30.9639 24.7954 31.029 23.6066 31.025C23.4766 31.0252 23.3466 31.0253 23.2166 31.0256C22.9454 31.0258 22.6741 31.0254 22.4029 31.0246C22.0554 31.0236 21.7078 31.0242 21.3603 31.0252C21.0924 31.0259 20.8245 31.0257 20.5566 31.0252C20.4284 31.0251 20.3002 31.0252 20.172 31.0257C19.9932 31.0261 19.8144 31.0254 19.6356 31.0244C19.5828 31.0248 19.5301 31.0251 19.4757 31.0255C19.1899 31.0225 19.0023 31.0038 18.77 30.8193C18.5466 30.5649 18.4598 30.4261 18.4589 30.0903C18.4585 30.0257 18.4582 29.9611 18.4579 29.8946C18.4578 29.8234 18.4577 29.7522 18.4577 29.6789C18.4574 29.6042 18.4571 29.5295 18.4568 29.4525C18.4561 29.2896 18.4556 29.1268 18.4552 28.964C18.4545 28.7062 18.4533 28.4484 18.452 28.1906C18.4482 27.4574 18.4449 26.7242 18.4429 25.9911C18.4418 25.5863 18.4401 25.1815 18.4376 24.7768C18.4363 24.5627 18.4354 24.3487 18.4353 24.1346C18.4351 23.8953 18.4336 23.6561 18.4319 23.4168C18.4321 23.3465 18.4323 23.2762 18.4325 23.2037C18.4266 22.6328 18.3335 22.1011 17.9223 21.6767C17.6003 21.4386 17.3072 21.3669 16.9141 21.3642C16.8454 21.3636 16.7767 21.363 16.7059 21.3624C16.6318 21.3622 16.5578 21.3619 16.4815 21.3617C16.405 21.3613 16.3286 21.361 16.2498 21.3606C16.088 21.36 15.9261 21.3596 15.7643 21.3594C15.558 21.3591 15.3517 21.3576 15.1454 21.3559C14.9475 21.3545 14.7495 21.3544 14.5516 21.3541C14.478 21.3533 14.4044 21.3526 14.3287 21.3518C13.852 21.3531 13.5106 21.4042 13.0975 21.654C12.7511 22.0097 12.5869 22.4168 12.5862 22.9081C12.586 22.9736 12.5857 23.0391 12.5855 23.1067C12.5855 23.1783 12.5856 23.2498 12.5856 23.3236C12.5854 23.3992 12.5852 23.4749 12.585 23.5528C12.5845 23.7172 12.5842 23.8815 12.584 24.0459C12.5836 24.3059 12.5826 24.566 12.5815 24.826C12.5811 24.9151 12.5807 25.0042 12.5803 25.0933C12.5801 25.1379 12.5799 25.1826 12.5797 25.2285C12.5772 25.8338 12.5752 26.439 12.5745 27.0443C12.5739 27.4528 12.5726 27.8613 12.5703 28.2698C12.5691 28.4859 12.5683 28.7019 12.5686 28.918C12.5689 29.159 12.5674 29.4 12.5657 29.6411C12.5661 29.7124 12.5665 29.7838 12.5669 29.8573C12.5627 30.2253 12.5568 30.4787 12.2915 30.7587C11.9883 31.026 11.739 31.0358 11.3538 31.0322C11.297 31.0327 11.2403 31.0331 11.1818 31.0335C10.9946 31.0346 10.8075 31.0339 10.6203 31.0331C10.4895 31.0332 10.3587 31.0335 10.2279 31.0338C9.95381 31.0341 9.6797 31.0336 9.40557 31.0325C9.05582 31.0311 8.70611 31.0319 8.35636 31.0333C8.08614 31.0342 7.81593 31.0339 7.54571 31.0333C7.41686 31.0332 7.28802 31.0334 7.15917 31.0339C5.86632 31.0384 5.86631 31.0384 5.26801 30.7587C5.21839 30.7358 5.16877 30.7129 5.11764 30.6894C4.21469 30.25 3.73412 29.467 3.37592 28.5715C3.23571 28.034 3.26167 27.4746 3.26309 26.9236C3.26311 26.8304 3.2631 26.7373 3.26307 26.6441C3.26305 26.3927 3.2634 26.1413 3.26383 25.8899C3.26421 25.6267 3.26424 25.3634 3.26431 25.1001C3.2645 24.6022 3.265 24.1043 3.26561 23.6064C3.26628 23.0393 3.26662 22.4722 3.26692 21.9051C3.26755 20.7391 3.26862 19.5731 3.26997 18.4072C3.22885 18.4075 3.18773 18.4078 3.14537 18.4082C3.09119 18.4084 3.03701 18.4087 2.98119 18.409C2.92758 18.4093 2.87398 18.4097 2.81875 18.41C2.00479 18.395 1.32286 18.074 0.742607 17.5219C0.145139 16.8924 -0.0381729 16.1925 -0.0279168 15.3414C0.00942515 14.308 0.559925 13.6411 1.27077 12.9356C1.32342 12.8826 1.37607 12.8297 1.43032 12.7751C1.57477 12.6299 1.71962 12.4852 1.86465 12.3406C2.02165 12.1839 2.17813 12.0266 2.33467 11.8695C2.64071 11.5624 2.94723 11.2558 3.25395 10.9494C3.50333 10.7003 3.75254 10.451 4.00164 10.2016C4.05497 10.1482 4.05497 10.1482 4.10937 10.0937C4.18161 10.0214 4.25385 9.94902 4.32609 9.87669C5.00222 9.19973 5.67892 8.52335 6.35581 7.84716C6.97437 7.22921 7.59222 6.61057 8.20975 5.99159C8.84492 5.35495 9.48053 4.71875 10.1166 4.08305C10.4733 3.72657 10.8298 3.36992 11.1859 3.01281C11.4889 2.70894 11.7923 2.40551 12.0962 2.10262C12.2511 1.94825 12.4058 1.79369 12.56 1.63859C12.7274 1.47012 12.8958 1.30262 13.0643 1.13518C13.1124 1.08652 13.1605 1.03785 13.21 0.987707C14.3579 -0.14527 15.8431 -0.337785 17.2182 0.497804Z" fill="#424345"/>
</g>
<defs>
<clipPath id="clip0_162_208">
<rect width="31" height="31" fill="white"/>
</clipPath>
</defs>
</svg>
