<svg width="31" height="31" viewBox="0 0 31 31" fill="none" xmlns="http://www.w3.org/2000/svg">
<g clip-path="url(#clip0_162_204)">
<path d="M17.2787 0.497804C17.5493 0.682324 17.7728 0.907962 18.0025 1.14019C18.0559 1.19323 18.1093 1.24627 18.1644 1.30092C18.3112 1.44692 18.4574 1.59344 18.6034 1.74021C18.7616 1.89889 18.9204 2.05687 19.0791 2.21495C19.3895 2.5242 19.6991 2.83409 20.0085 3.14423C20.2602 3.39639 20.512 3.64831 20.764 3.90007C20.8 3.93597 20.8359 3.97188 20.8729 4.00887C20.946 4.08182 21.019 4.15477 21.092 4.22772C21.7759 4.91093 22.4591 5.59489 23.142 6.2791C23.7273 6.86549 24.3133 7.45124 24.8997 8.03653C25.5815 8.71708 26.263 9.39803 26.9438 10.0796C27.0165 10.1524 27.0891 10.2251 27.1618 10.2979C27.1976 10.3336 27.2333 10.3694 27.2702 10.4063C27.5215 10.6578 27.7731 10.9091 28.0248 11.1602C28.3318 11.4665 28.6383 11.7733 28.9443 12.0805C29.1003 12.2371 29.2564 12.3935 29.4131 12.5494C29.5833 12.7188 29.7525 12.889 29.9217 13.0594C29.9709 13.108 30.0201 13.1567 30.0707 13.2068C30.3801 13.5204 30.609 13.8425 30.8188 14.2294C30.8555 14.2949 30.8922 14.3604 30.93 14.4279C31.1524 15.1392 31.1444 16.1679 30.8188 16.8443C30.701 17.0323 30.701 17.0323 30.5766 17.1962C30.5381 17.2484 30.4995 17.3007 30.4598 17.3544C29.9743 17.9501 29.326 18.2817 28.5672 18.392C28.393 18.4034 28.2238 18.4087 28.0495 18.4081C28.001 18.408 27.9525 18.4078 27.9025 18.4077C27.8659 18.4075 27.8292 18.4073 27.7914 18.4072C27.7916 18.4786 27.7916 18.4786 27.7918 18.5515C27.7945 19.7134 27.7965 20.8753 27.7977 22.0372C27.7983 22.5991 27.7992 23.161 27.8006 23.7229C27.8018 24.213 27.8026 24.703 27.8028 25.1931C27.803 25.4523 27.8034 25.7115 27.8043 25.9707C27.8051 26.2152 27.8053 26.4598 27.8051 26.7043C27.8052 26.7935 27.8054 26.8827 27.8059 26.9719C27.8118 28.1661 27.6169 29.1911 26.7924 30.0965C25.8851 30.9639 24.8559 31.029 23.6672 31.025C23.5372 31.0252 23.4072 31.0253 23.2772 31.0256C23.0059 31.0258 22.7347 31.0254 22.4634 31.0246C22.1159 31.0236 21.7684 31.0242 21.4209 31.0252C21.1529 31.0259 20.885 31.0257 20.6171 31.0252C20.4889 31.0251 20.3607 31.0252 20.2326 31.0257C20.0538 31.0261 19.875 31.0254 19.6962 31.0244C19.6434 31.0248 19.5906 31.0251 19.5362 31.0255C19.2505 31.0225 19.0628 31.0038 18.8305 30.8193C18.6071 30.5649 18.5203 30.4261 18.5194 30.0903C18.5191 30.0257 18.5188 29.9611 18.5184 29.8946C18.5184 29.8234 18.5183 29.7522 18.5182 29.6789C18.5179 29.6042 18.5176 29.5295 18.5173 29.4525C18.5166 29.2896 18.5161 29.1268 18.5157 28.964C18.5151 28.7062 18.5138 28.4484 18.5125 28.1906C18.5088 27.4574 18.5055 26.7242 18.5035 25.9911C18.5024 25.5863 18.5006 25.1815 18.4981 24.7768C18.4969 24.5627 18.4959 24.3487 18.4958 24.1346C18.4956 23.8953 18.4941 23.6561 18.4924 23.4168C18.4926 23.3465 18.4928 23.2762 18.493 23.2037C18.4872 22.6328 18.394 22.1011 17.9829 21.6767C17.6608 21.4386 17.3678 21.3669 16.9747 21.3642C16.9059 21.3636 16.8372 21.363 16.7664 21.3624C16.6924 21.3622 16.6183 21.3619 16.542 21.3617C16.4656 21.3613 16.3891 21.361 16.3103 21.3606C16.1485 21.36 15.9867 21.3596 15.8248 21.3594C15.6185 21.3591 15.4123 21.3576 15.206 21.3559C15.008 21.3545 14.8101 21.3544 14.6121 21.3541C14.5385 21.3533 14.465 21.3526 14.3892 21.3518C13.9125 21.3531 13.5712 21.4042 13.158 21.654C12.8117 22.0097 12.6474 22.4168 12.6468 22.9081C12.6465 22.9736 12.6463 23.0391 12.646 23.1067C12.6461 23.1783 12.6461 23.2498 12.6461 23.3236C12.6459 23.3992 12.6457 23.4749 12.6455 23.5528C12.6451 23.7172 12.6447 23.8815 12.6445 24.0459C12.6442 24.3059 12.6432 24.566 12.642 24.826C12.6416 24.9151 12.6412 25.0042 12.6409 25.0933C12.6407 25.1379 12.6405 25.1826 12.6403 25.2285C12.6377 25.8338 12.6357 26.439 12.635 27.0443C12.6345 27.4528 12.6331 27.8613 12.6308 28.2698C12.6296 28.4859 12.6289 28.7019 12.6292 28.918C12.6295 29.159 12.628 29.4 12.6263 29.6411C12.6267 29.7124 12.6271 29.7838 12.6275 29.8573C12.6233 30.2253 12.6174 30.4787 12.352 30.7587C12.0488 31.026 11.7995 31.0358 11.4143 31.0322C11.3576 31.0327 11.3008 31.0331 11.2423 31.0335C11.0551 31.0346 10.868 31.0339 10.6808 31.0331C10.55 31.0332 10.4193 31.0335 10.2885 31.0338C10.0144 31.0341 9.74025 31.0336 9.46612 31.0325C9.11637 31.0311 8.76666 31.0319 8.41691 31.0333C8.14669 31.0342 7.87648 31.0339 7.60626 31.0333C7.47741 31.0332 7.34856 31.0334 7.21972 31.0339C5.92956 31.0384 5.92956 31.0383 5.32856 30.7587C5.25902 30.7266 5.18948 30.6946 5.11783 30.6615C4.21118 30.1317 3.69142 29.4002 3.39106 28.3974C3.31114 27.9291 3.32243 27.4589 3.32364 26.9854C3.32366 26.8917 3.32365 26.798 3.32361 26.7042C3.3236 26.451 3.32395 26.1977 3.32437 25.9444C3.32475 25.6793 3.32479 25.4141 3.32486 25.149C3.32505 24.6475 3.32554 24.1459 3.32615 23.6444C3.32683 23.0732 3.32716 22.502 3.32747 21.9308C3.3281 20.7562 3.32916 19.5817 3.33051 18.4072C3.2894 18.4075 3.24828 18.4078 3.20592 18.4082C3.15174 18.4084 3.09756 18.4087 3.04173 18.409C2.98813 18.4093 2.93452 18.4097 2.87929 18.41C2.06534 18.395 1.38341 18.074 0.803154 17.5219C0.205686 16.8924 0.022374 16.1925 0.0326301 15.3414C0.069972 14.308 0.620472 13.6411 1.33132 12.9356C1.38397 12.8826 1.43662 12.8297 1.49086 12.7751C1.63532 12.6299 1.78016 12.4852 1.9252 12.3406C2.0822 12.1839 2.23867 12.0266 2.39522 11.8695C2.70126 11.5624 3.00778 11.2558 3.31449 10.9494C3.56387 10.7003 3.81309 10.451 4.06219 10.2016C4.11551 10.1482 4.11551 10.1482 4.16992 10.0937C4.24216 10.0214 4.3144 9.94902 4.38663 9.87669C5.06276 9.19973 5.73947 8.52335 6.41636 7.84716C7.03491 7.22921 7.65277 6.61057 8.2703 5.99159C8.90546 5.35495 9.54108 4.71875 10.1772 4.08305C10.5339 3.72657 10.8904 3.36992 11.2464 3.01281C11.5494 2.70894 11.8528 2.40551 12.1567 2.10262C12.3116 1.94825 12.4663 1.79369 12.6205 1.63859C12.788 1.47012 12.9564 1.30262 13.1249 1.13518C13.173 1.08652 13.221 1.03785 13.2706 0.987707C14.4185 -0.14527 15.9036 -0.337785 17.2787 0.497804ZM14.302 2.62943C14.2498 2.68131 14.1977 2.73318 14.1439 2.78662C13.9999 2.93002 13.8564 3.07381 13.7129 3.21778C13.5579 3.37322 13.4024 3.52813 13.2469 3.6831C12.9427 3.9865 12.639 4.29039 12.3354 4.59446C12.0887 4.84158 11.8418 5.08852 11.5948 5.33534C11.5596 5.37049 11.5245 5.40564 11.4882 5.44185C11.4168 5.51326 11.3453 5.58467 11.2738 5.65608C10.604 6.32537 9.93476 6.99522 9.2657 7.66526C8.69169 8.24008 8.1172 8.81442 7.54236 9.38842C6.8746 10.0552 6.20714 10.7223 5.54014 11.3899C5.46901 11.461 5.39789 11.5322 5.32676 11.6034C5.29177 11.6384 5.25677 11.6734 5.22072 11.7095C4.97417 11.9562 4.72741 12.2027 4.48056 12.4491C4.17977 12.7494 3.87931 13.05 3.57926 13.3511C3.42618 13.5046 3.27296 13.658 3.11934 13.811C2.95282 13.9769 2.78701 14.1435 2.62127 14.3101C2.57262 14.3584 2.52396 14.4066 2.47383 14.4563C2.16965 14.7638 1.91218 15.0419 1.91145 15.4971C1.92224 15.8091 1.99118 15.9789 2.18012 16.2275C2.5224 16.4984 2.76607 16.5368 3.19381 16.5408C3.27334 16.5423 3.35287 16.5437 3.43481 16.5452C3.5605 16.5473 3.68614 16.5491 3.81184 16.5499C3.93381 16.5509 4.05576 16.5534 4.1777 16.556C4.25035 16.5569 4.323 16.5578 4.39786 16.5587C4.69545 16.6054 4.88396 16.7248 5.06507 16.9656C5.16804 17.1796 5.16971 17.3353 5.16984 17.5726C5.17011 17.6159 5.17039 17.6593 5.17067 17.7039C5.17137 17.8488 5.17079 17.9937 5.17022 18.1386C5.17046 18.2427 5.1708 18.3467 5.1712 18.4508C5.17191 18.6748 5.17206 18.8987 5.17179 19.1227C5.17137 19.4772 5.17233 19.8316 5.1735 20.1861C5.1758 20.939 5.17657 21.692 5.17719 22.4449C5.17786 23.2567 5.1788 24.0686 5.18147 24.8804C5.18258 25.2324 5.18282 25.5844 5.18239 25.9364C5.18229 26.156 5.18295 26.3755 5.1838 26.5951C5.18404 26.6965 5.18398 26.7979 5.18357 26.8993C5.18099 27.6014 5.18275 28.2461 5.69444 28.7794C6.11964 29.1468 6.58708 29.1924 7.13608 29.1914C7.19464 29.1914 7.19464 29.1914 7.25438 29.1914C7.38181 29.1914 7.50924 29.1909 7.63667 29.1904C7.72566 29.1903 7.81465 29.1902 7.90364 29.1902C8.13665 29.1899 8.36966 29.1893 8.60268 29.1887C8.84093 29.188 9.07919 29.1878 9.31744 29.1875C9.78404 29.1868 10.2506 29.1858 10.7172 29.1845C10.7174 29.1332 10.7174 29.1332 10.7177 29.0808C10.7213 28.2448 10.7259 27.4088 10.7315 26.5728C10.7342 26.1685 10.7366 25.7642 10.7382 25.3599C10.7398 24.9693 10.7422 24.5787 10.7453 24.188C10.7463 24.0395 10.747 23.8909 10.7474 23.7423C10.751 22.4419 10.8226 21.3506 11.7728 20.3619C12.563 19.6583 13.4461 19.4581 14.4811 19.467C14.5664 19.467 14.6516 19.4669 14.7369 19.4667C14.9141 19.4666 15.0912 19.4674 15.2684 19.4688C15.4934 19.4705 15.7183 19.4703 15.9433 19.4695C16.1189 19.4691 16.2945 19.4696 16.4701 19.4703C16.5927 19.4707 16.7153 19.4705 16.8379 19.4702C17.8271 19.4802 18.6944 19.7417 19.4206 20.4364C20.1396 21.2289 20.3612 22.1682 20.3635 23.2113C20.3641 23.2764 20.3647 23.3415 20.3653 23.4085C20.3672 23.6211 20.3682 23.8337 20.3693 24.0463C20.3704 24.1947 20.3716 24.343 20.3728 24.4914C20.3759 24.8801 20.3783 25.2688 20.3806 25.6575C20.383 26.0548 20.3861 26.4522 20.3891 26.8495C20.395 27.6279 20.4001 28.4062 20.4047 29.1845C20.9163 29.1873 21.428 29.1895 21.9396 29.1908C22.1772 29.1914 22.4148 29.1923 22.6524 29.1936C22.8821 29.195 23.1117 29.1957 23.3414 29.196C23.4286 29.1962 23.5159 29.1966 23.6032 29.1973C24.3866 29.203 25.0129 29.1594 25.6004 28.598C25.9733 28.0333 25.9401 27.4017 25.9368 26.7507C25.937 26.6463 25.9372 26.5418 25.9375 26.4373C25.938 26.2134 25.938 25.9894 25.9375 25.7655C25.9368 25.4113 25.9376 25.0572 25.9385 24.703C25.9407 23.8237 25.9411 22.9444 25.9409 22.0652C25.9408 21.3808 25.9413 20.6965 25.9434 20.0121C25.9444 19.6601 25.9443 19.3081 25.9433 18.9561C25.943 18.7372 25.9436 18.5184 25.9445 18.2995C25.9448 18.1981 25.9446 18.0967 25.9439 17.9954C25.9431 17.8568 25.9438 17.7184 25.9448 17.5798C25.9448 17.4636 25.9448 17.4636 25.9448 17.3451C25.9886 17.0415 26.1198 16.8499 26.358 16.6604C26.5585 16.5742 26.7139 16.5675 26.932 16.5662C27.011 16.5648 27.0901 16.5635 27.1716 16.5621C27.2546 16.5615 27.3376 16.5609 27.4206 16.5605C28.2367 16.5766 28.2367 16.5766 28.9305 16.201C29.1233 15.9751 29.202 15.8105 29.2067 15.5123C29.2085 15.4632 29.2102 15.4141 29.2119 15.3635C29.1316 14.8875 28.76 14.5667 28.4325 14.2419C28.3806 14.1897 28.3287 14.1376 28.2753 14.0838C28.1319 13.9399 27.9881 13.7963 27.8441 13.6529C27.6887 13.4978 27.5338 13.3423 27.3788 13.1868C27.0754 12.8826 26.7715 12.5789 26.4674 12.2754C26.2203 12.0287 25.9734 11.7818 25.7266 11.5348C25.6914 11.4996 25.6563 11.4644 25.62 11.4282C25.5486 11.3567 25.4772 11.2852 25.4058 11.2137C24.7365 10.5439 24.0667 9.87469 23.3966 9.20563C22.8218 8.63161 22.2475 8.05713 21.6735 7.48229C21.0067 6.81453 20.3396 6.14706 19.672 5.48007C19.6009 5.40894 19.5297 5.33781 19.4585 5.26669C19.4235 5.23169 19.3884 5.1967 19.3524 5.16064C19.1057 4.91409 18.8592 4.66733 18.6127 4.42049C18.3125 4.1197 18.0119 3.81923 17.7108 3.51918C17.5573 3.3661 17.4039 3.21288 17.2509 3.05927C17.085 2.89275 16.9184 2.72694 16.7518 2.5612C16.7035 2.51254 16.6553 2.46389 16.6055 2.41376C16.2981 2.10957 16.02 1.85211 15.5648 1.85137C15.4928 1.84962 15.4928 1.84962 15.4193 1.84782C14.9456 1.93616 14.627 2.30169 14.302 2.62943Z" fill="#9A9C9E"/>
</g>
<defs>
<clipPath id="clip0_162_204">
<rect width="31" height="31" fill="white"/>
</clipPath>
</defs>
</svg>
