<svg width="31" height="31" viewBox="0 0 31 31" fill="none" xmlns="http://www.w3.org/2000/svg">
<path d="M11.2771 1.70216C11.3286 1.70482 11.3801 1.70747 11.4332 1.71021C11.9787 1.83786 12.3438 2.13421 12.715 2.53847C13.0504 2.88809 13.36 3.18422 13.8049 3.38991C13.8513 3.41301 13.8978 3.43611 13.9456 3.45992C14.8372 3.88378 15.8157 3.90201 16.749 3.59047C16.8584 3.54595 16.9669 3.49923 17.0744 3.45045C17.1294 3.4261 17.1843 3.40175 17.2409 3.37666C17.7326 3.12549 18.0823 2.76686 18.4533 2.36317C18.8082 1.98603 19.1799 1.74293 19.7082 1.70216C19.7588 1.69732 19.8094 1.69249 19.8615 1.6875C20.3569 1.70706 20.7922 1.88578 21.2408 2.08437C21.3317 2.12442 21.3317 2.12442 21.4244 2.16528C22.6835 2.73029 24.7465 3.66605 25.3618 4.99818C25.5526 5.59108 25.4343 6.19526 25.2466 6.77107C24.9583 7.70659 25.1545 8.67023 25.5919 9.52328C26.0487 10.362 26.7789 10.9373 27.6701 11.261C27.8443 11.3069 28.0199 11.3448 28.1961 11.3821C28.7574 11.5031 29.1793 11.6777 29.5433 12.1427C30.1087 13.032 30.0547 14.3293 30.0504 15.3517C30.0503 15.4048 30.0502 15.458 30.0501 15.5128C30.0419 18.2052 30.0419 18.2052 29.2978 18.968C28.9215 19.3099 28.5554 19.4184 28.0634 19.5249C27.0749 19.7424 26.2024 20.2312 25.6342 21.0809C25.0342 22.0666 24.8801 23.021 25.1352 24.1409C25.1784 24.3039 25.2287 24.4549 25.2899 24.6116C25.4451 25.0543 25.4501 25.59 25.2747 26.0269C24.6559 27.1837 23.1618 27.9283 22.0468 28.5131C21.9843 28.546 21.9217 28.5789 21.8572 28.6129C21.0919 29.0063 20.3347 29.3434 19.4736 29.0694C19.0534 28.8893 18.7794 28.5993 18.5011 28.2444C17.895 27.4793 16.9631 27.0699 16.0073 26.9578C14.9748 26.8876 13.9699 27.2302 13.1864 27.906C12.9772 28.1079 12.7998 28.3204 12.628 28.5547C12.327 28.9517 11.9384 29.2156 11.4436 29.304C9.8604 29.5042 7.82442 27.9742 6.64593 27.073C6.56316 27.0085 6.56316 27.0085 6.47872 26.9426C6.43166 26.9065 6.38459 26.8704 6.3361 26.8331C5.92864 26.5021 5.67467 26.0993 5.61238 25.5742C5.58924 25.0314 5.72468 24.597 5.90896 24.095C6.22209 23.2334 6.09304 22.2573 5.73276 21.4312C5.27485 20.5392 4.57852 19.888 3.63313 19.5331C3.39207 19.4581 3.14332 19.4184 2.8951 19.3743C2.29245 19.2668 1.79414 19.0906 1.40745 18.5881C0.89544 17.7573 0.947588 16.6585 0.94984 15.7157C0.950031 15.5497 0.948607 15.3837 0.947076 15.2177C0.938245 12.7251 0.938245 12.7251 1.57442 11.9005C2.01561 11.4584 2.55549 11.3034 3.15244 11.2067C3.80824 11.0968 4.32239 10.8151 4.84395 10.4133C4.90764 10.3671 4.97133 10.3209 5.03695 10.2733C5.75858 9.58377 6.12028 8.62944 6.17598 7.64758C6.17598 7.16335 6.0794 6.71944 5.92623 6.2621C5.76439 5.75962 5.7254 5.23524 5.92055 4.73471C6.65378 3.40456 8.67731 2.51418 10.0321 1.96706C10.0828 1.94655 10.1335 1.92605 10.1858 1.90493C10.5514 1.76197 10.8808 1.67488 11.2771 1.70216ZM7.8713 5.50905C7.90283 5.78024 7.95733 6.03619 8.02479 6.30089C8.12342 6.72136 8.14377 7.1218 8.13997 7.55251C8.13947 7.62663 8.13897 7.70076 8.13845 7.77713C8.1106 9.27762 7.52698 10.568 6.50568 11.664C6.23552 11.923 5.93925 12.1396 5.63106 12.3508C5.58259 12.3845 5.53413 12.4181 5.48419 12.4528C4.77638 12.9108 3.97138 13.1243 3.14864 13.259C3.03741 13.7021 2.98789 14.1358 2.95565 14.5911C2.95039 14.6646 2.94514 14.7381 2.93973 14.8139C2.88677 15.6551 2.8627 16.545 3.02755 17.3762C3.14392 17.4027 3.14392 17.4027 3.26264 17.4297C4.9079 17.8147 6.27954 18.5989 7.21663 20.0517C7.98307 21.3525 8.27148 22.9425 7.89613 24.4191C7.83409 24.6357 7.76483 24.8491 7.69108 25.0619C7.62271 25.2339 7.62271 25.2339 7.62911 25.3684C7.77597 25.504 7.94349 25.6155 8.10592 25.7317C8.17961 25.7845 8.17961 25.7845 8.25479 25.8384C9.06904 26.4116 10.0988 27.0821 11.0803 27.3059C11.1082 27.2685 11.1362 27.2312 11.165 27.1926C12.0415 26.0546 13.299 25.3122 14.7131 25.0657C14.7893 25.052 14.8654 25.0382 14.9439 25.0241C16.6225 24.859 18.1785 25.3415 19.4859 26.4095C19.7038 26.5954 19.8853 26.805 20.0566 27.0344C20.1565 27.1395 20.1565 27.1395 20.2988 27.1214C20.5117 27.0475 20.7112 26.9541 20.9116 26.8518C20.9539 26.8304 20.9962 26.8089 21.0398 26.7868C21.763 26.4147 22.4281 25.9902 23.0686 25.4895C23.1491 25.4288 23.2298 25.3682 23.3107 25.3079C23.2786 25.031 23.224 24.7655 23.1594 24.4943C22.7961 22.9349 23.0949 21.3997 23.9042 20.0343C24.083 19.7507 24.2947 19.4996 24.5217 19.2532C24.5716 19.1961 24.5716 19.1961 24.6224 19.1378C25.4724 18.2166 26.7137 17.7411 27.9123 17.4973C28.0231 16.8782 28.0524 16.2799 28.0492 15.6526C28.0485 15.5035 28.0492 15.3543 28.05 15.2052C28.0504 14.6067 28.0093 14.0317 27.9123 13.4407C27.8399 13.417 27.7675 13.3932 27.6928 13.3688C27.6429 13.3519 27.5929 13.3351 27.5415 13.3177C27.4194 13.2766 27.297 13.2363 27.1744 13.1966C26.3695 12.9259 25.6394 12.5613 25.0061 11.9876C24.9565 11.9436 24.9069 11.8997 24.8559 11.8544C23.7744 10.84 23.1978 9.41937 23.1168 7.95008C23.1074 7.1925 23.2145 6.47799 23.4318 5.75124C22.5559 5.0378 21.605 4.47932 20.5861 3.99538C20.5291 3.96642 20.472 3.93746 20.4133 3.90763C20.1792 3.7795 20.1792 3.7795 19.9249 3.78583C19.7821 3.88619 19.686 4.00642 19.5779 4.14228C18.814 5.03403 17.4927 5.59569 16.3479 5.75124C14.4749 5.88172 12.9867 5.48156 11.5454 4.2535C11.3662 4.09723 11.2227 3.9444 11.0803 3.75319C10.0507 3.75319 8.66837 4.91535 7.8713 5.50905Z" fill="#9A9C9E"/>
<path d="M19.0115 10.777C20.2009 11.7764 21.1282 13.0699 21.3123 14.652C21.4334 16.3639 21.1447 17.9319 20.0001 19.2632C19.0064 20.3867 17.6789 21.218 16.1526 21.3259C14.3879 21.4043 12.8776 21.041 11.5453 19.8287C10.4513 18.802 9.73143 17.455 9.66413 15.941C9.62104 14.2153 10.0375 12.7493 11.2412 11.4655C13.2826 9.39329 16.6425 8.9836 19.0115 10.777ZM12.7298 12.7864C11.921 13.6635 11.6093 14.6627 11.6563 15.8414C11.7279 16.8564 12.2217 17.7133 12.9568 18.4059C13.7759 19.0807 14.7328 19.4009 15.7917 19.3673C16.9049 19.2546 17.8026 18.7446 18.5293 17.8931C19.2468 16.9688 19.4053 15.9757 19.3143 14.8336C19.1664 13.9004 18.6199 13.0663 17.8947 12.472C16.2503 11.2787 14.2304 11.4237 12.7298 12.7864Z" fill="#9A9C9E"/>
</svg>
