<svg width="30" height="30" viewBox="0 0 30 30" fill="none" xmlns="http://www.w3.org/2000/svg">
<path d="M11.5838 7.09006C13.1037 4.36336 13.8637 3 15 3C16.1363 3 16.8962 4.36335 18.4161 7.09005L18.8094 7.79548C19.2414 8.57032 19.4573 8.95776 19.7941 9.21338C20.1308 9.46901 20.5501 9.56389 21.3889 9.75367L22.1526 9.92645C25.1041 10.5943 26.58 10.9282 26.9311 12.0573C27.2822 13.1863 26.2761 14.3629 24.2639 16.7159L23.7433 17.3247C23.1715 17.9933 22.8855 18.3276 22.7569 18.7413C22.6284 19.1549 22.6716 19.6009 22.758 20.4931L22.8367 21.3053C23.1409 24.4448 23.2931 26.0145 22.3739 26.7123C21.4545 27.4101 20.0727 26.7738 17.3091 25.5015L16.5942 25.1722C15.8089 24.8106 15.4163 24.6298 15 24.6298C14.5837 24.6298 14.1911 24.8106 13.4058 25.1722L12.6908 25.5015C9.92721 26.7738 8.54541 27.4101 7.62618 26.7123C6.70694 26.0145 6.85905 24.4448 7.16328 21.3053L7.24197 20.4931C7.32843 19.6009 7.37166 19.1549 7.24303 18.7413C7.11441 18.3276 6.82851 17.9933 6.2567 17.3247L5.73612 16.7159C3.7239 14.3629 2.71779 13.1863 3.06891 12.0573C3.42003 10.9282 4.89583 10.5943 7.84744 9.92645L8.61106 9.75367C9.44981 9.56389 9.86919 9.46901 10.2059 9.21338C10.5427 8.95776 10.7586 8.57034 11.1906 7.79548L11.5838 7.09006Z" fill="#DFE2E5"/>
</svg>
