<svg width="31" height="31" viewBox="0 0 31 31" fill="none" xmlns="http://www.w3.org/2000/svg">
<path d="M11.2771 1.70216C11.3286 1.70482 11.3801 1.70747 11.4332 1.71021C11.9787 1.83786 12.3438 2.13421 12.715 2.53847C13.0504 2.88809 13.36 3.18422 13.8049 3.38991C13.8513 3.41301 13.8978 3.43611 13.9456 3.45992C14.8372 3.88378 15.8157 3.90201 16.749 3.59047C16.8584 3.54595 16.9669 3.49923 17.0744 3.45045C17.1294 3.4261 17.1843 3.40175 17.2409 3.37666C17.7326 3.12549 18.0823 2.76686 18.4533 2.36317C18.8082 1.98603 19.1799 1.74293 19.7082 1.70216C19.7588 1.69732 19.8094 1.69249 19.8615 1.6875C20.3569 1.70706 20.7922 1.88578 21.2408 2.08437C21.3317 2.12442 21.3317 2.12442 21.4244 2.16528C22.6835 2.73029 24.7465 3.66605 25.3618 4.99818C25.5526 5.59108 25.4343 6.19526 25.2466 6.77107C24.9583 7.70659 25.1545 8.67023 25.5919 9.52328C26.0487 10.362 26.7789 10.9373 27.6701 11.261C27.8443 11.3069 28.0199 11.3448 28.1961 11.3821C28.7574 11.5031 29.1793 11.6777 29.5433 12.1427C30.1087 13.032 30.0547 14.3293 30.0504 15.3517C30.0503 15.4048 30.0502 15.458 30.0501 15.5128C30.0419 18.2065 30.0419 18.2065 29.2976 18.968C29.26 19.0021 29.2225 19.0363 29.1838 19.0715C29.1359 19.1153 29.1359 19.1153 29.0871 19.16C28.7703 19.3981 28.3998 19.4479 28.0203 19.5249C27.0542 19.7257 26.1853 20.2568 25.6342 21.0809C25.0342 22.0666 24.8801 23.021 25.1352 24.1409C25.1784 24.3039 25.2287 24.4549 25.2899 24.6116C25.4451 25.0543 25.4501 25.59 25.2747 26.0269C24.6559 27.1837 23.1618 27.9283 22.0468 28.5131C21.9843 28.546 21.9217 28.5789 21.8572 28.6129C21.0919 29.0063 20.3347 29.3434 19.4736 29.0694C19.0534 28.8893 18.7794 28.5993 18.5011 28.2444C17.895 27.4793 16.9631 27.0699 16.0073 26.9578C14.9748 26.8876 13.9699 27.2302 13.1864 27.906C12.9772 28.1079 12.7998 28.3204 12.628 28.5547C12.327 28.9517 11.9384 29.2156 11.4436 29.304C9.8604 29.5042 7.82442 27.9742 6.64593 27.073C6.56316 27.0085 6.56316 27.0085 6.47872 26.9426C6.43166 26.9065 6.38459 26.8704 6.3361 26.8331C5.92864 26.5021 5.67467 26.0993 5.61238 25.5742C5.58924 25.0314 5.72468 24.597 5.90896 24.095C6.22209 23.2334 6.09304 22.2573 5.73276 21.4312C5.27485 20.5392 4.57852 19.888 3.63313 19.5331C3.39207 19.4581 3.14332 19.4184 2.8951 19.3743C2.29245 19.2668 1.79414 19.0906 1.40745 18.5881C0.89544 17.7573 0.947588 16.6585 0.94984 15.7157C0.950031 15.5497 0.948607 15.3837 0.947076 15.2177C0.938245 12.7251 0.938245 12.7251 1.57442 11.9005C2.01561 11.4584 2.55549 11.3034 3.15244 11.2067C3.80824 11.0968 4.32239 10.8151 4.84395 10.4133C4.90764 10.3671 4.97133 10.3209 5.03695 10.2733C5.75858 9.58377 6.12028 8.62944 6.17598 7.64758C6.17598 7.16335 6.0794 6.71944 5.92623 6.2621C5.76439 5.75962 5.7254 5.23524 5.92055 4.73471C6.65378 3.40456 8.67731 2.51418 10.0321 1.96706C10.0828 1.94655 10.1335 1.92605 10.1858 1.90493C10.5514 1.76197 10.8808 1.67488 11.2771 1.70216ZM11.9885 12.1692C11.0088 13.1888 10.6825 14.4793 10.7007 15.8564C10.7314 16.8442 11.163 17.8375 11.8068 18.5872C11.8369 18.6258 11.8669 18.6644 11.8979 18.7042C12.5762 19.5427 13.7041 20.1443 14.7736 20.2825C16.2491 20.4019 17.5639 20.07 18.7113 19.1129C19.5538 18.3504 20.2134 17.2278 20.2941 16.0725C20.3254 14.7075 20.1097 13.4782 19.1936 12.4114C19.1635 12.3728 19.1335 12.3341 19.1025 12.2943C18.4055 11.4327 17.3123 10.8814 16.2268 10.7161C16.1694 10.7069 16.112 10.6977 16.0529 10.6882C14.5252 10.5016 13.0725 11.1207 11.9885 12.1692Z" fill="#424345"/>
</svg>
