<svg width="181" height="180" viewBox="0 0 181 180" fill="none" xmlns="http://www.w3.org/2000/svg">
<g clip-path="url(#clip0_157_347)">
<rect x="0.5" width="180" height="180" rx="90" fill="#F3BD81"/>
<g filter="url(#filter0_f_157_347)">
<path d="M61.2508 58.7997L78.2566 54.6064H98.1743L114.947 56.8195L133.001 65.5554L147.678 76.1549L158.51 96.7715L159.325 105.74C159.325 105.74 156.763 114.942 155.715 117.155C154.666 119.368 149.774 124.493 149.774 124.493L148.609 140.684L149.541 166.658C149.541 166.658 149.541 172.715 148.609 176.559C147.678 180.403 144.533 186.576 141.854 189.022C139.175 191.468 135.098 194.73 131.487 196.244C127.876 197.758 122.402 198.457 117.859 198.457H95.0294H72.6657C72.6657 198.457 57.9894 198.457 53.3303 197.409C48.6712 196.36 46.5746 194.497 43.8956 192.4C41.2166 190.303 36.9069 186.11 34.9268 183.315C32.9467 180.519 32.4807 177.374 32.4807 175.045V161.999V140.684V126.706C32.4807 126.706 31.4325 125.775 30.2677 124.726C29.1029 123.678 25.4921 119.135 24.3273 116.456C23.1625 113.777 21.5318 106.439 21.2988 104.343C21.0659 102.246 23.512 86.172 23.512 86.172L34.3444 75.1066L44.8274 65.5554L61.2508 58.7997Z" fill="#C57D61"/>
</g>
<path d="M62.532 49.7157L79.5378 45.5225H99.4556L116.228 47.7355L134.283 56.4714L148.959 67.0709L159.791 87.6875V99.8012L155.249 110.051L148.959 117.622V133.23L149.891 159.205L147.677 170.387L143.135 179.938L132.768 187.16L118.558 190.305L96.3107 189.373H73.9469L54.6115 188.325L45.1768 183.316L36.208 174.231L33.762 165.961V152.915V131.6V117.622L31.4324 115.642L25.6085 107.372L22.5801 95.2586L25.6085 78.9517L35.6256 66.0226L46.1086 56.4714L62.532 49.7157Z" fill="#F7F2D9"/>
<path d="M99.1085 45.0576H78.1424C78.1424 45.0576 73.9492 49.3673 71.6197 56.7054C69.2901 64.0435 69.2901 67.1884 69.2901 67.1884C69.2901 67.1884 69.0571 72.8959 73.5998 74.0607C78.1424 75.2254 83.151 67.1884 83.151 67.1884L90.0232 57.7537L99.1085 45.0576Z" fill="#F9BB78"/>
<path d="M118.91 48.783L110.989 47.1523C110.989 47.1523 107.495 49.8313 102.603 56.3541C97.7108 62.8769 96.8954 68.4678 96.8954 68.4678C96.8954 68.4678 95.1482 74.7576 98.8755 77.3202C102.603 79.8827 108.31 73.4764 108.31 73.4764C108.31 73.4764 114.367 66.7207 116.347 64.3911C118.327 62.0615 126.481 53.3257 126.481 53.3257L118.91 48.783Z" fill="#F9BB78"/>
<g filter="url(#filter1_f_157_347)">
<path d="M145.814 174.231L149.425 163.748C149.425 163.748 140.806 180.987 92.5839 181.569C44.362 182.152 33.4131 163.748 33.4131 163.748L35.8591 174.231L43.6632 183.083L54.1462 187.626L71.9673 190.538H99.9221H122.635L139.874 183.083L145.814 174.231Z" fill="url(#paint0_linear_157_347)"/>
</g>
<g filter="url(#filter2_f_157_347)">
<path d="M145.073 109.678C145.073 109.678 148.522 105.608 151.696 100.296C154.869 94.9843 152.868 81.2568 152.868 81.2568" stroke="url(#paint1_linear_157_347)" stroke-width="10" stroke-linecap="round"/>
</g>
<path d="M83.3434 42.992C82.7533 43.0541 80.9207 43.2715 79.3055 43.4579C69.2108 44.6072 57.5319 48.3655 48.7106 53.2731C33.2423 61.877 24.3589 73.3074 21.1907 88.6203C20.1968 93.3416 20.29 99.2121 21.3771 102.877C21.812 104.43 22.8059 106.853 23.5514 108.313C25.3529 111.792 28.7075 116.264 30.1052 117.103L31.2234 117.755L31.1302 141.703L31.006 165.651L31.8757 168.385C34.081 175.404 37.1249 179.815 42.8091 184.101C45.1076 185.841 50.4811 188.574 53.7735 189.692C58.9296 191.432 58.7743 191.432 92.817 191.432H124.188L126.829 190.717C135.805 188.294 143.073 183.325 146.801 177.05C148.602 174.069 149.938 170.372 150.776 166.024C151.367 163.011 151.398 161.706 151.336 140.181L151.273 117.507L153.914 114.867C155.839 112.91 156.864 111.574 157.796 109.742C165.934 93.8075 160.374 73.8665 143.943 60.1686C135.588 53.1799 124.251 47.6822 113.006 45.1041C105.241 43.3337 102.694 43.0541 93.2829 42.9609C88.4063 42.8988 83.9336 42.9299 83.3434 42.992ZM102.477 47.3095C104.558 47.5579 107.478 48.0239 109 48.3655C114.311 49.5148 123.008 52.2171 125.804 53.6459C126.798 54.1118 127.947 54.6398 128.351 54.764C129.935 55.261 137.545 60.1376 140.744 62.7156C147.515 68.1513 152.112 74.2392 155.094 81.7559C157.392 87.4711 158.076 95.9196 156.678 101.169C155.342 106.232 153.23 109.897 149.41 113.686L147.173 115.923V140.492V165.03L146.335 167.67C143.539 176.554 140.06 180.467 131.395 184.598C125.99 187.145 125.4 187.269 113.628 187.58C98.2837 188.015 62.7812 187.704 59.4266 187.114C56.2895 186.555 53.8667 185.748 49.7977 183.884C48.2758 183.201 44.3932 180.56 42.8712 179.194C39.4545 176.119 36.0378 169.813 35.2613 165.03C35.0439 163.881 34.9507 154.097 35.0128 139.622L35.0749 116.078L32.5279 113.78C28.6453 110.239 25.9741 105.424 24.918 100.02C24.4832 97.7522 24.6695 90.8257 25.2597 88.1544C26.5021 82.3771 28.8938 76.8793 31.9688 72.6861C34.9196 68.7104 41.0386 62.8709 45.4182 59.9201C49.922 56.8762 58.3705 52.714 63.3092 51.0678C68.807 49.2973 77.8767 47.4026 82.7222 47.061C87.195 46.7193 99.0913 46.8746 102.477 47.3095Z" fill="#631F01"/>
<ellipse cx="57.7561" cy="78.951" rx="2.67899" ry="2.91195" fill="white"/>
<ellipse cx="47.524" cy="73.0657" rx="8.82949" ry="6.71789" transform="rotate(-34.4946 47.524 73.0657)" fill="white"/>
<ellipse cx="36.4914" cy="83.4343" rx="4.56913" ry="5.01333" transform="rotate(10.5065 36.4914 83.4343)" fill="white"/>
<path d="M62.0352 117.971C59.1776 119.586 57.873 121.698 57.873 124.68C57.873 127.04 58.339 128.469 59.7056 130.302C61.7867 133.035 64.8617 134.029 68.1542 133.066C70.7012 132.352 72.2231 131.078 73.3724 128.811C76.1989 123.127 72.3163 117.07 65.7936 117.039C63.961 117.039 63.3708 117.194 62.0352 117.971Z" fill="#652102"/>
<path d="M112.883 117.723C110.398 118.935 108.534 121.357 108.068 123.904C107.54 126.855 109.621 130.769 112.603 132.415C115.865 134.248 120.244 133.409 122.791 130.52C123.35 129.868 124.003 128.843 124.282 128.253C124.996 126.607 124.872 123.594 124.034 121.886C123.195 120.115 120.772 117.91 119.126 117.413C117.138 116.823 114.436 116.947 112.883 117.723Z" fill="#652102"/>
<path d="M122.809 136.123C119.529 137.746 117.068 140.992 116.453 144.405C115.756 148.359 118.503 153.603 122.44 155.809C126.746 158.265 132.528 157.141 135.891 153.27C136.629 152.396 137.491 151.023 137.86 150.232C138.803 148.026 138.639 143.989 137.532 141.7C136.424 139.327 133.226 136.372 131.052 135.706C128.428 134.916 124.86 135.082 122.809 136.123Z" fill="#FEA492"/>
<path d="M50.0314 137.287C46.6816 138.91 44.1693 142.156 43.5412 145.569C42.8294 149.523 45.6348 154.767 49.6546 156.973C54.0511 159.429 59.9551 158.305 63.3887 154.434C64.1424 153.56 65.0217 152.187 65.3985 151.396C66.3616 149.19 66.1941 145.153 65.0635 142.864C63.933 140.492 60.667 137.536 58.4477 136.871C55.7679 136.08 52.125 136.246 50.0314 137.287Z" fill="#FEA492"/>
<path d="M81.8214 122.507C80.9827 123.563 81.0138 124.278 81.9145 126.203C84.0267 130.8 90.1457 133.068 95.4881 131.266C98.1593 130.365 100.768 127.85 101.483 125.458C102.135 123.221 101.452 121.699 99.8056 121.699C98.7806 121.699 98.1904 122.321 97.3518 124.246C96.451 126.328 94.7737 127.384 92.0404 127.539C90.2699 127.632 89.7419 127.539 88.3752 126.856C87.0706 126.203 86.6047 125.737 85.9524 124.402C85.5176 123.532 84.9274 122.538 84.6479 122.227C83.9335 121.42 82.5668 121.544 81.8214 122.507Z" fill="#652102"/>
</g>
<defs>
<filter id="filter0_f_157_347" x="11.2832" y="44.6064" width="158.042" height="163.851" filterUnits="userSpaceOnUse" color-interpolation-filters="sRGB">
<feFlood flood-opacity="0" result="BackgroundImageFix"/>
<feBlend mode="normal" in="SourceGraphic" in2="BackgroundImageFix" result="shape"/>
<feGaussianBlur stdDeviation="5" result="effect1_foregroundBlur_157_347"/>
</filter>
<filter id="filter1_f_157_347" x="29.4131" y="159.748" width="124.012" height="34.79" filterUnits="userSpaceOnUse" color-interpolation-filters="sRGB">
<feFlood flood-opacity="0" result="BackgroundImageFix"/>
<feBlend mode="normal" in="SourceGraphic" in2="BackgroundImageFix" result="shape"/>
<feGaussianBlur stdDeviation="2" result="effect1_foregroundBlur_157_347"/>
</filter>
<filter id="filter2_f_157_347" x="130.073" y="66.2559" width="38.417" height="58.4219" filterUnits="userSpaceOnUse" color-interpolation-filters="sRGB">
<feFlood flood-opacity="0" result="BackgroundImageFix"/>
<feBlend mode="normal" in="SourceGraphic" in2="BackgroundImageFix" result="shape"/>
<feGaussianBlur stdDeviation="5" result="effect1_foregroundBlur_157_347"/>
</filter>
<linearGradient id="paint0_linear_157_347" x1="94.0981" y1="202.419" x2="91.4191" y2="149.654" gradientUnits="userSpaceOnUse">
<stop stop-color="#F3BD81"/>
<stop offset="1" stop-color="#F7F2D9"/>
</linearGradient>
<linearGradient id="paint1_linear_157_347" x1="153.903" y1="100.71" x2="143.97" y2="98.5714" gradientUnits="userSpaceOnUse">
<stop stop-color="#E69240"/>
<stop offset="1" stop-color="#FFDAB7" stop-opacity="0.5"/>
</linearGradient>
<clipPath id="clip0_157_347">
<rect x="0.5" width="180" height="180" rx="90" fill="white"/>
</clipPath>
</defs>
</svg>
